<?xml version="1.0" standalone="no"?>
<!DOCTYPE svg PUBLIC "-//W3C//DTD SVG 20010904//EN"
 "http://www.w3.org/TR/2001/REC-SVG-20010904/DTD/svg10.dtd">
<svg version="1.0" xmlns="http://www.w3.org/2000/svg"
 width="500.000000pt" height="500.000000pt" viewBox="0 0 500.000000 500.000000"
 preserveAspectRatio="xMidYMid meet">
<metadata>
Created by potrace 1.11, written by Peter Selinger 2001-2013
</metadata>
<g transform="translate(0.000000,500.000000) scale(0.100000,-0.100000)"
fill="#000000" stroke="none">
<path d="M1115 4859 c-159 -20 -344 -91 -489 -187 -91 -60 -237 -207 -299
-300 -99 -148 -165 -325 -186 -497 -15 -125 -15 -2625 0 -2750 31 -252 141
-477 324 -660 182 -182 407 -293 660 -324 125 -15 2625 -15 2750 0 253 31 478
142 660 324 183 183 293 408 324 660 15 125 15 2625 0 2750 -31 252 -142 478
-324 660 -182 183 -407 293 -660 324 -109 13 -2652 13 -2760 0z m1949 -2216
c181 -351 332 -642 336 -646 4 -5 154 281 333 635 179 353 331 644 339 646 10
2 34 -153 107 -695 56 -421 99 -711 108 -731 24 -51 97 -92 164 -92 16 0 29
-4 29 -10 0 -6 -93 -10 -260 -10 -167 0 -260 4 -260 10 0 6 15 10 33 10 40 0
75 23 88 58 8 20 -3 163 -41 542 -28 283 -54 526 -57 540 -4 20 -63 -90 -283
-530 -152 -305 -283 -579 -290 -608 -9 -35 -19 -52 -28 -50 -8 2 -150 267
-315 590 -209 407 -304 582 -309 570 -7 -17 -100 -945 -102 -1015 -1 -32 5
-44 32 -68 20 -18 43 -29 62 -29 17 0 30 -4 30 -10 0 -6 -85 -10 -235 -10
-223 0 -302 10 -179 23 68 7 130 45 149 91 8 18 52 331 99 697 100 771 93 729
110 729 7 0 160 -287 340 -637z m-1521 592 c335 -58 575 -269 641 -562 23
-102 21 -269 -4 -369 -33 -132 -82 -216 -185 -320 -78 -78 -104 -97 -195 -142
-191 -94 -199 -95 -777 -99 -309 -3 -503 -1 -503 5 0 5 22 12 50 16 31 4 60
16 80 32 62 53 60 24 60 701 0 568 -1 621 -18 653 -20 41 -88 80 -139 80 -18
0 -33 5 -33 10 0 7 163 10 469 10 370 0 486 -3 554 -15z"/>
<path d="M870 2499 l0 -690 318 3 c313 3 318 4 392 30 112 40 167 74 251 157
56 56 85 96 112 151 60 122 72 184 71 355 0 134 -3 159 -27 230 -66 200 -207
345 -398 410 -95 33 -234 45 -501 45 l-218 0 0 -691z"/>
</g>
</svg>
